<svg width="40" height="40" viewBox="0 0 40 40" fill="none" xmlns="http://www.w3.org/2000/svg">
<g clip-path="url(#clip0_12545_7823)">
<path d="M0 20C0 10.5719 0 5.85786 2.92894 2.92894C5.85786 0 10.5719 0 20 0C29.4281 0 34.1421 0 37.0711 2.92894C40 5.85786 40 10.5719 40 20C40 29.4281 40 34.1421 37.0711 37.0711C34.1421 40 29.4281 40 20 40C10.5719 40 5.85786 40 2.92894 37.0711C0 34.1421 0 29.4281 0 20Z" fill="#0C1629"/>
<path d="M20 10C17.3478 10 14.8043 11.0536 12.9289 12.9289C11.0536 14.8043 10 17.3478 10 20C10 22.6522 11.0536 25.1957 12.9289 27.0711C14.8043 28.9464 17.3478 30 20 30C22.062 30 24.2306 29.3769 25.8 28.3333C26.0456 28.1702 26.2163 27.9161 26.2745 27.6271C26.3328 27.338 26.2738 27.0377 26.1106 26.7921C25.9475 26.5466 25.6934 26.3759 25.4044 26.3176C25.1154 26.2594 24.815 26.3183 24.5694 26.4815C23.3657 27.2806 21.6167 27.7778 20 27.7778C18.4617 27.7778 16.9579 27.3216 15.6789 26.467C14.3998 25.6124 13.403 24.3976 12.8143 22.9764C12.2256 21.5552 12.0716 19.9914 12.3717 18.4826C12.6718 16.9739 13.4125 15.588 14.5003 14.5003C15.588 13.4125 16.9739 12.6718 18.4826 12.3717C19.9914 12.0716 21.5552 12.2256 22.9764 12.8143C24.3976 13.403 25.6124 14.3998 26.467 15.6789C27.3216 16.9579 27.7778 18.4617 27.7778 20C27.7778 20.8602 27.6231 21.5815 27.3435 22.0324C27.0991 22.425 26.788 22.5926 26.2963 22.5926C25.8046 22.5926 25.4935 22.425 25.2491 22.0324C24.9713 21.5815 24.8148 20.8602 24.8148 20V16.2963C24.8148 16.0297 24.7189 15.772 24.5446 15.5702C24.3704 15.3684 24.1294 15.236 23.8656 15.1972C23.6019 15.1583 23.3329 15.2156 23.1079 15.3586C22.8828 15.5015 22.7167 15.7206 22.6398 15.9759C21.8759 15.4739 20.9848 15.1998 20.0708 15.1856C19.1568 15.1713 18.2576 15.4176 17.4784 15.8955C16.6992 16.3734 16.0722 17.0633 15.6705 17.8845C15.2689 18.7056 15.1094 19.6241 15.2106 20.5326C15.3117 21.4411 15.6694 22.3021 16.2418 23.0148C16.8142 23.7275 17.5777 24.2625 18.4429 24.5573C19.3082 24.8521 20.2395 24.8946 21.128 24.6796C22.0164 24.4647 22.8254 24.0012 23.4602 23.3435C24.1019 24.287 25.075 24.8148 26.2963 24.8148C28.5806 24.8148 30 22.9704 30 20C29.9971 17.3487 28.9425 14.8069 27.0678 12.9322C25.1931 11.0575 22.6513 10.0029 20 10ZM20 22.5926C19.4872 22.5926 18.986 22.4405 18.5596 22.1557C18.1333 21.8708 17.801 21.4659 17.6048 20.9921C17.4085 20.5184 17.3572 19.9971 17.4572 19.4942C17.5573 18.9913 17.8042 18.5293 18.1668 18.1668C18.5293 17.8042 18.9913 17.5573 19.4942 17.4572C19.9971 17.3572 20.5184 17.4085 20.9921 17.6048C21.4659 17.801 21.8708 18.1333 22.1557 18.5596C22.4405 18.986 22.5926 19.4872 22.5926 20C22.5926 20.6876 22.3194 21.347 21.8332 21.8332C21.347 22.3194 20.6876 22.5926 20 22.5926Z" fill="#F5F7FC"/>
</g>
<defs>
<clipPath id="clip0_12545_7823">
<rect width="40" height="40" fill="white"/>
</clipPath>
</defs>
</svg>
